<?xml version="1.0" encoding="utf-8" ?>
<svg xmlns="http://www.w3.org/2000/svg" xmlns:xlink="http://www.w3.org/1999/xlink" width="1024" height="1024">
	<path fill="white" transform="scale(2 2)" d="M174.632 293.009C168.933 304.201 158.13 311.78 145.387 312.484C82.1681 315.976 88.2299 200.656 139.043 198.594C147.675 195.679 162.245 202.972 168.232 209.033C181.05 222.011 184.056 241.246 183.937 258.733C187.508 246.08 190.249 232.787 193.132 219.938C194.166 215.327 194.81 208.679 196.771 204.531C199.456 198.852 209.344 199.321 211.612 205.216C213.266 209.518 213.729 214.492 214.783 218.995C218.32 234.111 221.267 250.976 225.58 265.558C225.874 260.724 226.88 255.973 227.651 251.201L232.031 225.657C233.997 214.828 232.102 198.725 246.502 200.653C256.299 201.965 252.721 210.892 251.409 217.508L237.339 293.939C236.356 298.812 236.681 309.412 230.587 311.061C215.457 315.154 215.708 296.449 213.344 286.169C210.513 273.86 207.624 261.521 204.274 249.342L193.576 297.881C192.861 301.168 192.519 306.86 190.02 309.368C187.252 312.148 179.344 311.84 176.658 309.051C173.637 305.914 174.607 297.292 174.632 293.009ZM139.043 218.308C118.46 222.306 119.35 257.383 122.387 272.653C124.869 285.134 131.768 295.832 145.778 293.939C166.604 289.947 164.986 254.344 161.897 239.031C159.366 226.482 152.723 217.035 139.043 218.308Z"/>
	<path fill="white" transform="scale(2 2)" d="M102.253 298.599C102.262 309.559 99.0346 311 87.4467 312.481C60.3673 315.943 43.2426 296.26 40.2362 270.74C36.8863 242.304 43.9795 202.448 78.3808 198.594C85.9217 197.477 99.7376 199.447 104.273 206.115C104.006 211.705 102.845 217.368 102.253 222.95C93.6468 219.865 88.6478 214.644 77.6439 218.916C50.5689 229.427 53.8429 306.857 93.5727 292.282C95.9155 291.423 98.1378 290.196 100.453 289.251L101.008 289.587C102.548 292.06 102.266 295.767 102.253 298.599Z"/>
	<path fill="white" transform="scale(2 2)" d="M261.424 310.809C256.725 306.497 258.464 298.505 258.462 292.745L258.463 225.3C258.462 217.173 254.866 202.511 263.948 200.786C274.362 200.456 286.727 199.749 296.275 204.061C323.193 216.217 320.387 257.172 297.346 265.558C300.505 273.972 307.067 285.153 311.4 293.204C313.02 296.216 320.269 306.789 315.988 309.686C312.071 312.337 299.663 312.124 295.82 306.052C289.773 294.763 284.63 282.962 278.718 271.587L278.734 294.256C278.74 311.37 280.118 311.381 261.424 310.809ZM278.718 218.308L278.718 254.034C283.885 253.802 287.044 253.215 290.786 249.342C299.678 237.747 295.784 217.442 278.718 218.308Z"/>
	<path fill="white" transform="scale(2 2)" d="M339.825 310.809C319.64 311.091 323.955 310.334 323.964 290.692L323.958 223.767C323.953 216.44 321.139 202.978 329.149 200.786C332.918 200.577 342.8 199.174 344.352 204.038C345.274 206.927 344.746 238.709 344.745 244.875L344.74 285.347C344.744 292.963 347.89 308.502 339.825 310.809Z"/>
	<path fill="white" transform="scale(2 2)" d="M366.593 219.585C363.516 219.558 353.443 220.442 351.221 218.639C349.301 217.081 345.219 202.115 355.335 200.786L384.908 200.78C392.355 200.779 405.254 197.698 405.592 206.868C406.203 223.398 402.992 219.06 387.748 219.585L387.748 298.599C387.873 307.468 389.193 310.523 379.109 310.768C363.946 311.138 366.594 307.84 366.589 294.195L366.593 219.585Z"/>
	<path fill="white" transform="scale(2 2)" d="M431.215 293.009C435.484 292.996 449.945 292.162 453.025 294.124C455.855 295.926 455.558 307.002 454.218 308.825C451.389 312.669 440.306 310.817 436.047 310.818L422.396 310.825C418.005 310.826 411.298 312.146 410.775 305.949C410.311 300.459 410.605 294.741 410.604 289.231L410.616 225.036C410.608 221.152 409.397 205.17 411.936 202.439C413.383 200.883 416.199 200.944 418.149 200.786L442.383 200.778C448.292 200.776 459.774 198.337 460.211 205.827C461.06 220.347 460.295 219.601 447.057 219.601L431.215 219.585L431.215 246.505C435.734 246.491 450.08 245.605 453.191 247.702C456.115 249.673 455.16 262.628 453.626 264.193C451.349 266.516 434.961 265.573 431.215 265.558C431.009 268.144 431.189 270.849 431.193 273.447L431.215 289.481L431.215 293.009Z"/>
	<path fill="white" transform="scale(2 2)" d="M143.83 268.427C140.791 268.465 134.099 269.302 131.782 267.069C128.652 264.052 129.166 254.517 132.006 251.674C133.824 249.853 138.16 250.375 140.564 250.365C143.461 250.333 150.31 249.52 152.588 251.466C155.729 254.15 155.557 264.326 152.887 267.057C151.039 268.949 146.299 268.424 143.83 268.427Z"/>
	<path fill="white" transform="scale(2 2)" d="M466.505 310.809C455.64 313.022 451.662 296.313 463.549 293.939C474.57 292.32 477.524 308.722 466.505 310.809Z"/>
</svg>
